<svg width="80" height="80" viewBox="0 0 80 80" fill="none" xmlns="http://www.w3.org/2000/svg">
<circle cx="40" cy="40" r="40" fill="#D7E9F4"/>
<path d="M27.0425 47.1358C25.1079 45.5534 23.5588 43.5514 22.5126 41.2816C21.4663 39.0118 20.9503 36.5336 21.0037 34.0348C21.1947 25.5045 28.022 18.4729 36.5332 18.0243C38.7371 17.9043 40.9426 18.23 43.0178 18.9817C45.093 19.7335 46.9953 20.8959 48.611 22.3996C50.2268 23.9032 51.5228 25.7172 52.4216 27.7331C53.3203 29.749 53.8035 31.9254 53.842 34.1322L58.174 42.4563C58.1874 42.4812 58.1988 42.506 58.2103 42.5327C58.4767 43.1586 58.4945 43.8624 58.26 44.501C58.0255 45.1395 57.5564 45.6646 56.9483 45.9693L56.9139 45.9865L52.3166 48.0866V54.2724C52.3166 54.9813 52.035 55.6611 51.5337 56.1624C51.0324 56.6637 50.3526 56.9453 49.6437 56.9453H40.4795C40.1757 56.9453 39.8843 56.8246 39.6695 56.6098C39.4547 56.3949 39.334 56.1036 39.334 55.7998C39.334 55.4959 39.4547 55.2046 39.6695 54.9897C39.8843 54.7749 40.1757 54.6542 40.4795 54.6542H49.6418C49.7431 54.6542 49.8402 54.614 49.9118 54.5424C49.9834 54.4708 50.0236 54.3737 50.0236 54.2724V47.363C50.0234 47.1435 50.0863 46.9285 50.2048 46.7437C50.3232 46.5589 50.4923 46.412 50.6918 46.3206L55.9422 43.9207C56.0209 43.8774 56.082 43.8078 56.1144 43.7239C56.1469 43.6401 56.1488 43.5475 56.1197 43.4625L51.6884 34.9455C51.6006 34.7829 51.5535 34.6015 51.551 34.4167C51.5499 31.1334 50.4061 27.9529 48.3159 25.421C46.2257 22.889 43.3194 21.1635 40.0958 20.5406V24.2674C41.0711 24.5438 41.9136 25.1638 42.4677 26.0128C43.0218 26.8618 43.2501 27.8825 43.1105 28.8866C42.9709 29.8908 42.4729 30.8106 41.7083 31.4763C40.9436 32.1419 39.964 32.5086 38.9502 32.5086C37.9364 32.5086 36.9569 32.1419 36.1922 31.4763C35.4276 30.8106 34.9296 29.8908 34.79 28.8866C34.6504 27.8825 34.8787 26.8618 35.4328 26.0128C35.9869 25.1638 36.8294 24.5438 37.8047 24.2674V20.2981C37.4229 20.2886 37.041 20.2886 36.6592 20.3096C33.7837 20.474 31.0264 21.5099 28.7541 23.2796C26.4817 25.0493 24.8019 27.4688 23.9382 30.2164H28.2587C28.4267 30.2164 28.5926 30.2534 28.7447 30.3246C28.8968 30.3959 29.0314 30.4998 29.1389 30.6288L34.1887 36.6886C35.1171 36.2737 36.1642 36.2087 37.1367 36.5056C38.1093 36.8025 38.9416 37.4412 39.48 38.3038C40.0184 39.1664 40.2266 40.1947 40.066 41.1988C39.9055 42.2029 39.3871 43.115 38.6065 43.7667C37.826 44.4185 36.836 44.7658 35.8194 44.7446C34.8027 44.7234 33.8281 44.3351 33.0754 43.6514C32.3227 42.9677 31.8427 42.0348 31.7242 41.0249C31.6056 40.015 31.8564 38.9962 32.4303 38.1568L27.7222 32.5075H23.4265C23.3536 33.0303 23.3109 33.5568 23.2986 34.0845C23.2495 36.3327 23.736 38.5604 24.718 40.5835C25.7 42.6065 27.1492 44.3669 28.946 45.7192C29.1073 45.8403 29.2338 46.002 29.3125 46.1877C29.3913 46.3734 29.4197 46.5767 29.3947 46.7769L27.8673 58.9958C27.8329 59.2728 27.6984 59.5278 27.4893 59.7127C27.2801 59.8976 27.0106 59.9998 26.7313 60C26.6835 59.9998 26.6356 59.9966 26.5882 59.9905C26.4388 59.9718 26.2947 59.9239 26.1638 59.8495C26.033 59.7752 25.9182 59.6757 25.8258 59.5569C25.7334 59.4382 25.6654 59.3023 25.6255 59.1572C25.5856 59.0121 25.5747 58.8606 25.5935 58.7113L27.0425 47.1358ZM37.041 28.3072C37.041 28.6848 37.153 29.054 37.3628 29.3679C37.5726 29.6819 37.8708 29.9266 38.2196 30.0711C38.5685 30.2156 38.9524 30.2534 39.3227 30.1797C39.6931 30.1061 40.0333 29.9242 40.3003 29.6572C40.5673 29.3902 40.7491 29.05 40.8228 28.6797C40.8964 28.3093 40.8586 27.9255 40.7141 27.5766C40.5696 27.2277 40.3249 26.9296 40.0109 26.7198C39.697 26.51 39.3279 26.398 38.9502 26.398C38.4439 26.398 37.9583 26.5992 37.6002 26.9572C37.2422 27.3153 37.041 27.8009 37.041 28.3072ZM35.8955 42.4353C36.2731 42.4353 36.6423 42.3234 36.9562 42.1136C37.2702 41.9038 37.5149 41.6056 37.6594 41.2567C37.8039 40.9079 37.8417 40.524 37.768 40.1537C37.6944 39.7833 37.5125 39.4431 37.2455 39.1761C36.9785 38.9091 36.6383 38.7273 36.268 38.6536C35.8976 38.5799 35.5138 38.6178 35.1649 38.7623C34.816 38.9068 34.5179 39.1515 34.3081 39.4654C34.0983 39.7794 33.9863 40.1485 33.9863 40.5261C33.9863 41.0325 34.1875 41.5181 34.5455 41.8761C34.9036 42.2342 35.3892 42.4353 35.8955 42.4353Z" fill="#225677"/>
</svg>
