<svg width="80" height="80" viewBox="0 0 80 80" fill="none" xmlns="http://www.w3.org/2000/svg">
<circle cx="40" cy="40" r="40" fill="#D7E9F4"/>
<path d="M35.8002 26H46.3003M35.8002 19H52.6004M29.5001 34.1667V44.6667C29.5001 46.867 29.5001 47.966 28.8848 48.6497C28.2695 49.3333 27.2804 49.3333 25.3001 49.3333H23.2001C21.2197 49.3333 20.2306 49.3333 19.6153 48.6497C19 47.966 19 46.867 19 44.6667V38.8333C19 36.633 19 35.534 19.6153 34.8503C20.2306 34.1667 21.2197 34.1667 23.2001 34.1667H29.5001ZM29.5001 34.1667H40.0003M47.5394 53.3933C46.2184 54.378 42.7576 56.3847 44.866 58.8953C45.895 60.1227 47.0438 61 48.4844 61H56.7165C58.1571 61 59.3058 60.1227 60.3348 58.8953C62.4432 56.3847 58.9824 54.378 57.6615 53.3957C56.1684 52.2691 54.4052 51.6669 52.6004 51.6669C50.7956 51.6669 49.0324 52.2668 47.5394 53.3933ZM56.8005 41.1667C56.8005 42.4043 56.358 43.5913 55.5703 44.4665C54.7826 45.3417 53.7143 45.8333 52.6004 45.8333C51.4865 45.8333 50.4182 45.3417 49.6305 44.4665C48.8429 43.5913 48.4004 42.4043 48.4004 41.1667C48.4004 39.929 48.8429 38.742 49.6305 37.8668C50.4182 36.9917 51.4865 36.5 52.6004 36.5C53.7143 36.5 54.7826 36.9917 55.5703 37.8668C56.358 38.742 56.8005 39.929 56.8005 41.1667ZM28.4501 23.6667C28.4501 24.9043 28.0076 26.0913 27.22 26.9665C26.4323 27.8417 25.364 28.3333 24.2501 28.3333C23.1361 28.3333 22.0678 27.8417 21.2802 26.9665C20.4925 26.0913 20.05 24.9043 20.05 23.6667C20.05 22.429 20.4925 21.242 21.2802 20.3668C22.0678 19.4917 23.1361 19 24.2501 19C25.364 19 26.4323 19.4917 27.22 20.3668C28.0076 21.242 28.4501 22.429 28.4501 23.6667Z" stroke="#225677" stroke-width="2" stroke-linecap="round" stroke-linejoin="round"/>
</svg>
