<svg width="34" height="40" viewBox="0 0 34 40" fill="none" xmlns="http://www.w3.org/2000/svg">
<path d="M24.9062 8.85938C24.9062 8.66172 24.7445 8.5 24.5469 8.5H7.29687C7.09922 8.5 6.9375 8.66172 6.9375 8.85938V11.0156C6.9375 11.2133 7.09922 11.375 7.29687 11.375H24.5469C24.7445 11.375 24.9062 11.2133 24.9062 11.0156V8.85938ZM24.5469 14.9688H7.29687C7.09922 14.9688 6.9375 15.1305 6.9375 15.3281V17.4844C6.9375 17.682 7.09922 17.8438 7.29687 17.8438H24.5469C24.7445 17.8438 24.9062 17.682 24.9062 17.4844V15.3281C24.9062 15.1305 24.7445 14.9688 24.5469 14.9688ZM15.5625 21.4375H7.29687C7.09922 21.4375 6.9375 21.5992 6.9375 21.7969V23.9531C6.9375 24.1508 7.09922 24.3125 7.29687 24.3125H15.5625C15.7602 24.3125 15.9219 24.1508 15.9219 23.9531V21.7969C15.9219 21.5992 15.7602 21.4375 15.5625 21.4375ZM13.4062 35.2734H3.34375V3.64844H28.5V19.1016C28.5 19.2992 28.6617 19.4609 28.8594 19.4609H31.375C31.5727 19.4609 31.7344 19.2992 31.7344 19.1016V1.85156C31.7344 1.05645 31.092 0.414062 30.2969 0.414062H1.54687C0.751758 0.414062 0.109375 1.05645 0.109375 1.85156V37.0703C0.109375 37.8654 0.751758 38.5078 1.54687 38.5078H13.4062C13.6039 38.5078 13.7656 38.3461 13.7656 38.1484V35.6328C13.7656 35.4352 13.6039 35.2734 13.4062 35.2734ZM29.4344 31.9312C30.7371 30.7498 31.5547 29.0428 31.5547 27.1426C31.5547 23.5713 28.6572 20.6738 25.0859 20.6738C21.5146 20.6738 18.6172 23.5713 18.6172 27.1426C18.6172 29.0428 19.4348 30.7498 20.7375 31.9312C18.177 33.3912 16.416 36.0955 16.2812 39.2131C16.2723 39.4152 16.4385 39.5859 16.6406 39.5859H18.8014C18.99 39.5859 19.1473 39.4377 19.1607 39.2445C19.3359 36.1359 21.9279 33.6562 25.0859 33.6562C28.2439 33.6562 30.8359 36.1359 31.0111 39.2445C31.0201 39.4332 31.1773 39.5859 31.3705 39.5859H33.5312C33.7379 39.5859 33.8996 39.4152 33.8906 39.2131C33.7603 36.091 31.9949 33.3912 29.4344 31.9312ZM25.0859 23.5488C27.0715 23.5488 28.6797 25.157 28.6797 27.1426C28.6797 29.1281 27.0715 30.7363 25.0859 30.7363C23.1004 30.7363 21.4922 29.1281 21.4922 27.1426C21.4922 25.157 23.1004 23.5488 25.0859 23.5488Z" fill="#225677"/>
</svg>
