<svg width="80" height="80" viewBox="0 0 80 80" fill="none" xmlns="http://www.w3.org/2000/svg">
<circle cx="40" cy="40" r="40" fill="#D7E9F4"/>
<path d="M31.75 35.5H30.25M37.75 35.5H36.25M31.75 31H30.25M37.75 31H36.25M49.75 44.5H48.25M49.75 38.5H48.25M43 34V55H49C51.829 55 53.242 55 54.121 54.121C55 53.242 55 51.829 55 49V40C55 37.171 55 35.758 54.121 34.879C53.242 34 51.829 34 49 34H43ZM43 34C43 29.758 43 27.6355 41.6815 26.3185C40.3645 25 38.242 25 34 25C29.758 25 27.6355 25 26.3185 26.3185C25 27.6355 25 29.758 25 34V37M34.0375 42.9325C34.0462 43.332 33.9751 43.7292 33.8282 44.1009C33.6813 44.4725 33.4616 44.811 33.1821 45.0966C32.9025 45.3822 32.5688 45.609 32.2004 45.7638C31.8319 45.9186 31.4363 45.9983 31.0367 45.9981C30.6371 45.9979 30.2416 45.9178 29.8733 45.7627C29.5051 45.6075 29.1715 45.3803 28.8923 45.0945C28.613 44.8086 28.3937 44.4699 28.2472 44.0981C28.1006 43.7263 28.0299 43.329 28.039 42.9295C28.0569 42.1457 28.381 41.4 28.9418 40.8521C29.5026 40.3042 30.2557 39.9977 31.0397 39.9981C31.8238 39.9985 32.5765 40.3058 33.1368 40.8542C33.6971 41.4027 34.0204 42.1487 34.0375 42.9325ZM25.105 52.315C26.692 49.873 29.2135 48.958 31.0375 48.9595C32.8615 48.961 35.308 49.873 36.8965 52.315C36.9985 52.4725 37.027 52.6675 36.934 52.831C36.5635 53.4895 35.41 54.796 34.579 54.883C33.6205 54.985 31.1185 55 31.039 55C30.9595 55 28.3795 54.985 27.424 54.883C26.59 54.7945 25.438 53.4895 25.066 52.831C25.0243 52.7498 25.0058 52.6586 25.0127 52.5675C25.0196 52.4764 25.0515 52.389 25.105 52.315Z" stroke="#225677" stroke-width="2.5" stroke-linecap="round" stroke-linejoin="round"/>
</svg>
