<svg width="80" height="80" viewBox="0 0 80 80" fill="none" xmlns="http://www.w3.org/2000/svg">
<circle cx="40" cy="40" r="40" fill="#D7E9F4"/>
<path d="M34.75 55.75H45.25M34.75 55.75V47M34.75 55.75H25.3C25.0215 55.75 24.7545 55.6394 24.5575 55.4425C24.3606 55.2455 24.25 54.9785 24.25 54.7V48.05C24.25 47.7715 24.3606 47.5045 24.5575 47.3075C24.7545 47.1106 25.0215 47 25.3 47H34.75M45.25 55.75V34.75M45.25 55.75H54.7C54.9785 55.75 55.2455 55.6394 55.4425 55.4425C55.6394 55.2455 55.75 54.9785 55.75 54.7V25.3C55.75 25.0215 55.6394 24.7545 55.4425 24.5575C55.2455 24.3606 54.9785 24.25 54.7 24.25H46.3C46.0215 24.25 45.7545 24.3606 45.5575 24.5575C45.3606 24.7545 45.25 25.0215 45.25 25.3V34.75M34.75 47V35.8C34.75 35.5215 34.8606 35.2545 35.0575 35.0575C35.2545 34.8606 35.5215 34.75 35.8 34.75H45.25" stroke="#225677" stroke-width="1.5"/>
</svg>
