<svg width="80" height="80" viewBox="0 0 80 80" fill="none" xmlns="http://www.w3.org/2000/svg">
<circle cx="40" cy="40" r="40" fill="#D7E9F4"/>
<path d="M32.125 42.625H42.625V45.25H32.125V42.625ZM32.125 36.0625H47.875V38.6875H32.125V36.0625ZM32.125 49.1875H38.6875V51.8125H32.125V49.1875Z" fill="#225677"/>
<path d="M51.8125 25.5625H47.875V24.25C47.875 23.5538 47.5984 22.8861 47.1062 22.3938C46.6139 21.9016 45.9462 21.625 45.25 21.625H34.75C34.0538 21.625 33.3861 21.9016 32.8938 22.3938C32.4016 22.8861 32.125 23.5538 32.125 24.25V25.5625H28.1875C27.4913 25.5625 26.8236 25.8391 26.3313 26.3313C25.8391 26.8236 25.5625 27.4913 25.5625 28.1875V55.75C25.5625 56.4462 25.8391 57.1139 26.3313 57.6062C26.8236 58.0984 27.4913 58.375 28.1875 58.375H51.8125C52.5087 58.375 53.1764 58.0984 53.6687 57.6062C54.1609 57.1139 54.4375 56.4462 54.4375 55.75V28.1875C54.4375 27.4913 54.1609 26.8236 53.6687 26.3313C53.1764 25.8391 52.5087 25.5625 51.8125 25.5625ZM34.75 24.25H45.25V29.5H34.75V24.25ZM51.8125 55.75H28.1875V28.1875H32.125V32.125H47.875V28.1875H51.8125V55.75Z" fill="#225677"/>
</svg>
