<svg width="36" height="46" viewBox="0 0 36 46" fill="none" xmlns="http://www.w3.org/2000/svg">
<path fill-rule="evenodd" clip-rule="evenodd" d="M18 5C16.8065 5 15.6619 5.47411 14.818 6.31802C13.9741 7.16193 13.5 8.30653 13.5 9.5H22.5C22.5 8.30653 22.0259 7.16193 21.182 6.31802C20.3381 5.47411 19.1935 5 18 5ZM12.0465 2.75C13.6328 1.3505 15.7185 0.5 18 0.5C20.2815 0.5 22.365 1.3505 23.9535 2.75H31.5C32.6935 2.75 33.8381 3.22411 34.682 4.06802C35.5259 4.91193 36 6.05653 36 7.25V41C36 42.1935 35.5259 43.3381 34.682 44.182C33.8381 45.0259 32.6935 45.5 31.5 45.5H4.5C3.30653 45.5 2.16193 45.0259 1.31802 44.182C0.474106 43.3381 0 42.1935 0 41V7.25C0 6.05653 0.474106 4.91193 1.31802 4.06802C2.16193 3.22411 3.30653 2.75 4.5 2.75H12.0465ZM9.2835 7.25H4.5V41H31.5V7.25H26.7165C26.9025 7.9715 26.997 8.7215 27 9.5V11.75C27 12.3467 26.7629 12.919 26.341 13.341C25.919 13.7629 25.3467 14 24.75 14H11.25C10.6533 14 10.081 13.7629 9.65901 13.341C9.23705 12.919 9 12.3467 9 11.75V9.5C9.003 8.7215 9.0975 7.9715 9.2835 7.25ZM9 20.75C9 20.1533 9.23705 19.581 9.65901 19.159C10.081 18.7371 10.6533 18.5 11.25 18.5H24.75C25.3467 18.5 25.919 18.7371 26.341 19.159C26.7629 19.581 27 20.1533 27 20.75C27 21.3467 26.7629 21.919 26.341 22.341C25.919 22.7629 25.3467 23 24.75 23H11.25C10.6533 23 10.081 22.7629 9.65901 22.341C9.23705 21.919 9 21.3467 9 20.75ZM9 29.75C9 29.1533 9.23705 28.581 9.65901 28.159C10.081 27.7371 10.6533 27.5 11.25 27.5H18C18.5967 27.5 19.169 27.7371 19.591 28.159C20.0129 28.581 20.25 29.1533 20.25 29.75C20.25 30.3467 20.0129 30.919 19.591 31.341C19.169 31.7629 18.5967 32 18 32H11.25C10.6533 32 10.081 31.7629 9.65901 31.341C9.23705 30.919 9 30.3467 9 29.75Z" fill="#225677"/>
</svg>
