<svg width="80" height="80" viewBox="0 0 80 80" fill="none" xmlns="http://www.w3.org/2000/svg">
<circle cx="40" cy="40" r="40" fill="#D7E9F4"/>
<path d="M40 58.375L28.9278 45.3169C28.7739 45.1209 28.6217 44.9235 28.471 44.725C26.5806 42.2331 25.559 39.1903 25.5625 36.0625C25.5625 32.2334 27.0836 28.5612 29.7912 25.8536C32.4987 23.1461 36.1709 21.625 40 21.625C43.8291 21.625 47.5013 23.1461 50.2089 25.8536C52.9164 28.5612 54.4375 32.2334 54.4375 36.0625C54.4405 39.1888 53.4194 42.2301 51.5303 44.7211L51.529 44.725C51.529 44.725 51.1353 45.2421 51.0762 45.3117L40 58.375ZM30.5671 43.1434C30.5671 43.1434 30.8729 43.5477 30.9424 43.6343L40 54.3167L49.0694 43.6199C49.1271 43.5477 49.4343 43.1408 49.4356 43.1395C50.9807 41.104 51.8156 38.618 51.8125 36.0625C51.8125 32.9296 50.568 29.9251 48.3527 27.7098C46.1374 25.4945 43.1329 24.25 40 24.25C36.8671 24.25 33.8626 25.4945 31.6473 27.7098C29.432 29.9251 28.1875 32.9296 28.1875 36.0625C28.1843 38.6196 29.0202 41.1072 30.5671 43.1434Z" fill="#225677"/>
<path d="M46.5625 42.625H43.9375V32.125H36.0625V42.625H33.4375V32.125C33.4375 31.4288 33.7141 30.7611 34.2063 30.2688C34.6986 29.7766 35.3663 29.5 36.0625 29.5H43.9375C44.6337 29.5 45.3014 29.7766 45.7937 30.2688C46.2859 30.7611 46.5625 31.4288 46.5625 32.125V42.625Z" fill="#225677"/>
<path d="M38.6875 40H41.3125V42.625H38.6875V40ZM38.6875 34.75H41.3125V37.375H38.6875V34.75Z" fill="#225677"/>
</svg>
