<svg width="80" height="80" viewBox="0 0 80 80" fill="none" xmlns="http://www.w3.org/2000/svg">
<circle cx="40" cy="40" r="40" fill="#D7E9F4"/>
<path d="M54.9102 52.1837C55.7546 50.8289 56.2454 49.1992 56.2454 47.4713C56.2454 42.5624 52.3184 38.6353 47.4292 38.6353C42.54 38.6353 38.5933 42.5624 38.5933 47.4713C38.5933 52.3801 42.5203 56.3072 47.4292 56.3072C49.1374 56.3072 50.7475 55.8163 52.1024 54.972L58.2286 61L60.9579 58.2707L54.9102 52.1837ZM47.4292 52.3801C44.6999 52.3801 42.5203 50.1809 42.5203 47.4713C42.5203 44.7616 44.6999 42.5624 47.4292 42.5624C50.1585 42.5624 52.3184 44.7616 52.3184 47.4713C52.3184 50.1809 50.1389 52.3801 47.4292 52.3801ZM60.2707 42.5624H59.1907C58.5428 40.972 57.561 39.5582 56.3436 38.3604V34.7083H60.2707V42.5624ZM56.3436 22.9271H50.453V19H56.3436C57.3851 19 58.384 19.4137 59.1205 20.1502C59.8569 20.8867 60.2707 21.8855 60.2707 22.9271V28.8177H56.3436V22.9271ZM44.5624 22.9271H36.7083V19H44.5624V22.9271ZM24.9271 19H30.8177V22.9271H24.9271V28.8177H21V22.9271C21 21.8855 21.4137 20.8867 22.1502 20.1502C22.8867 19.4137 23.8855 19 24.9271 19ZM40.6353 58.2707H36.7083V54.3436C37.69 55.9537 39.0645 57.2889 40.6353 58.2707ZM24.9271 54.3436H30.8177V58.2707H24.9271C23.8855 58.2707 22.8867 57.8569 22.1502 57.1205C21.4137 56.384 21 55.3851 21 54.3436V48.453H24.9271V54.3436ZM24.9271 42.5624H21V34.7083H24.9271V42.5624Z" fill="#225677"/>
</svg>
