<?xml version="1.0" encoding="utf-8"?>
<!-- Generator: Adobe Illustrator 16.0.0, SVG Export Plug-In . SVG Version: 6.00 Build 0)  -->
<!DOCTYPE svg PUBLIC "-//W3C//DTD SVG 1.1//EN" "http://www.w3.org/Graphics/SVG/1.1/DTD/svg11.dtd">
<svg version="1.1" id="Layer_1" xmlns="http://www.w3.org/2000/svg" xmlns:xlink="http://www.w3.org/1999/xlink" x="0px" y="0px"
	 width="311.096px" height="342.874px" viewBox="91.571 183.571 311.096 342.874"
	 enable-background="new 91.571 183.571 311.096 342.874" xml:space="preserve">
<path opacity="0.4" fill="#1C75BC" enable-background="new    " d="M255.857,337.857c0,5.523-4.478,10-10,10H101.571
	c-5.522,0-10-4.477-10-10V193.571c0-5.523,4.478-10,10-10h144.286c5.522,0,10,4.477,10,10V337.857z"/>
<path opacity="0.4" fill="#1C75BC" enable-background="new    " d="M232.427,453.376c0,3.248-2.632,5.879-5.878,5.879h-84.812
	c-3.246,0-5.878-2.631-5.878-5.879v-84.81c0-3.247,2.632-5.878,5.878-5.878h84.812c3.246,0,5.878,2.631,5.878,5.878V453.376
	L232.427,453.376z"/>
<path opacity="0.4" fill="#1C75BC" enable-background="new    " d="M402.665,481.8c0,7.697-6.239,13.939-13.936,13.939H187.65
	c-7.696,0-13.936-6.24-13.936-13.939V280.722c0-7.697,6.238-13.936,13.936-13.936h201.08c7.695,0,13.937,6.239,13.937,13.936
	L402.665,481.8L402.665,481.8z"/>
</svg>
